<svg width="20" height="20" viewBox="0 0 20 20" fill="none" xmlns="http://www.w3.org/2000/svg">
<path d="M14.45 13.7334V8.23336C14.4478 7.53784 14.1705 6.87144 13.6787 6.37963C13.1869 5.88782 12.5205 5.61056 11.825 5.60836H4.32501V4.90002C4.32499 3.87663 4.72981 2.89478 5.45112 2.16879C6.17242 1.4428 7.15163 1.03163 8.17501 1.02502H15.0417C16.0694 1.02502 17.055 1.43328 17.7817 2.15999C18.5084 2.88669 18.9167 3.87231 18.9167 4.90002V9.90002C18.9145 10.9191 18.511 11.8963 17.7936 12.6201C17.0761 13.3438 16.1024 13.7557 15.0833 13.7667L14.45 13.7334ZM11.825 4.35836C12.8527 4.35836 13.8383 4.76662 14.565 5.49332C15.2918 6.22002 15.7 7.20564 15.7 8.23336V12.4C16.2563 12.256 16.7499 11.9334 17.1051 11.4818C17.4604 11.0302 17.6577 10.4745 17.6667 9.90002V4.90002C17.6645 4.20451 17.3872 3.5381 16.8954 3.0463C16.4036 2.55449 15.7372 2.27722 15.0417 2.27502H8.17501C7.57162 2.27428 6.98652 2.4821 6.51878 2.86328C6.05104 3.24446 5.72941 3.77557 5.60834 4.36669L11.825 4.35836ZM8.39168 18.975C8.11942 18.9764 7.85098 18.911 7.60983 18.7846C7.36868 18.6582 7.16217 18.4747 7.00834 18.25L6.25834 17.1917C6.23236 17.1517 6.19642 17.1191 6.15405 17.0972C6.11168 17.0753 6.06434 17.0648 6.01668 17.0667H5.00001C4.48764 17.0722 3.97927 16.976 3.50431 16.7838C3.02936 16.5915 2.59725 16.3069 2.233 15.9466C1.86874 15.5862 1.57958 15.1572 1.38224 14.6843C1.18491 14.2114 1.08331 13.7041 1.08334 13.1917V8.23336C1.08331 7.72096 1.18491 7.21364 1.38224 6.74077C1.57958 6.2679 1.86874 5.83886 2.233 5.47848C2.59725 5.1181 3.02936 4.83355 3.50431 4.64128C3.97927 4.44901 4.48764 4.35285 5.00001 4.35836H11.8667C12.8944 4.35836 13.88 4.76662 14.6067 5.49332C15.3334 6.22002 15.7417 7.20564 15.7417 8.23336V13.1917C15.7417 14.2194 15.3334 15.205 14.6067 15.9317C13.88 16.6584 12.8944 17.0667 11.8667 17.0667H10.7667C10.7191 17.0656 10.6721 17.0764 10.6299 17.0983C10.5876 17.1201 10.5516 17.1523 10.525 17.1917L9.77501 18.25C9.62119 18.4747 9.41467 18.6582 9.17352 18.7846C8.93237 18.911 8.66393 18.9764 8.39168 18.975ZM5.00001 5.60836C4.6521 5.60395 4.30677 5.66854 3.98397 5.79838C3.66116 5.92822 3.36729 6.12074 3.11934 6.36483C2.87138 6.60891 2.67425 6.89971 2.53934 7.22043C2.40443 7.54115 2.33442 7.88542 2.33334 8.23336V13.1917C2.33108 13.5413 2.39869 13.8879 2.53222 14.2111C2.66574 14.5343 2.86249 14.8275 3.1109 15.0736C3.35931 15.3196 3.65438 15.5136 3.97878 15.6441C4.30319 15.7746 4.65039 15.8389 5.00001 15.8334H6.01668C6.26537 15.8321 6.51062 15.8914 6.7313 16.0061C6.95197 16.1208 7.14143 16.2875 7.28334 16.4917L8.02501 17.5C8.06634 17.559 8.12121 17.6071 8.18501 17.6405C8.24881 17.6738 8.31968 17.6914 8.39168 17.6917C8.46367 17.6914 8.53454 17.6738 8.59834 17.6405C8.66215 17.6071 8.71701 17.559 8.75834 17.5L9.50001 16.4417C9.64737 16.2467 9.83922 16.0897 10.0596 15.9839C10.2799 15.8781 10.5223 15.8265 10.7667 15.8334H11.825C12.5212 15.8334 13.1889 15.5568 13.6812 15.0645C14.1734 14.5722 14.45 13.9046 14.45 13.2084V8.23336C14.4478 7.53784 14.1705 6.87144 13.6787 6.37963C13.1869 5.88782 12.5205 5.61056 11.825 5.60836H5.00001ZM5.48334 10C5.32841 10 5.17697 10.046 5.04815 10.132C4.91933 10.2181 4.81893 10.3405 4.75964 10.4836C4.70035 10.6267 4.68484 10.7842 4.71506 10.9362C4.74529 11.0881 4.81989 11.2277 4.92944 11.3373C5.03899 11.4468 5.17857 11.5214 5.33052 11.5516C5.48247 11.5819 5.63998 11.5664 5.78311 11.5071C5.92625 11.4478 6.04859 11.3474 6.13466 11.2186C6.22074 11.0897 6.26668 10.9383 6.26668 10.7834C6.26451 10.5763 6.18128 10.3783 6.03485 10.2319C5.88841 10.0854 5.69042 10.0022 5.48334 10ZM8.40001 10C8.2466 9.99708 8.09571 10.0392 7.96606 10.1213C7.83641 10.2033 7.73371 10.3217 7.6707 10.4616C7.6077 10.6015 7.58717 10.7568 7.61166 10.9083C7.63615 11.0597 7.70459 11.2007 7.80847 11.3136C7.91235 11.4265 8.04711 11.5064 8.19601 11.5434C8.34492 11.5804 8.50141 11.5729 8.64607 11.5217C8.79073 11.4706 8.91718 11.3781 9.00973 11.2557C9.10228 11.1333 9.15685 10.9865 9.16668 10.8334C9.17228 10.728 9.15677 10.6226 9.12106 10.5234C9.08535 10.4241 9.03016 10.333 8.95874 10.2553C8.88731 10.1777 8.8011 10.1151 8.70515 10.0713C8.6092 10.0274 8.50545 10.0032 8.40001 10ZM11.3083 10C11.1534 10 11.002 10.046 10.8731 10.132C10.7443 10.2181 10.6439 10.3405 10.5846 10.4836C10.5253 10.6267 10.5098 10.7842 10.5401 10.9362C10.5703 11.0881 10.6449 11.2277 10.7544 11.3373C10.864 11.4468 11.0036 11.5214 11.1555 11.5516C11.3075 11.5819 11.465 11.5664 11.6081 11.5071C11.7512 11.4478 11.8736 11.3474 11.9597 11.2186C12.0457 11.0897 12.0917 10.9383 12.0917 10.7834C12.0895 10.5763 12.0063 10.3783 11.8598 10.2319C11.7134 10.0854 11.5154 10.0022 11.3083 10Z" fill="#7E8299"/>
</svg>
